<svg version="1.1" xmlns="http://www.w3.org/2000/svg" xmlns:xlink="http://www.w3.org/1999/xlink" width="9.58219" height="8.14333" viewBox="0,0,9.58219,8.14333"><g transform="translate(-235.20891,-175.92833)"><g data-paper-data="{&quot;isPaintingLayer&quot;:true}" fill-rule="nonzero" stroke-width="0" stroke-linecap="butt" stroke-linejoin="miter" stroke-miterlimit="10" stroke-dasharray="" stroke-dashoffset="0" style="mix-blend-mode: normal"><path d="M244.79109,180c0,2.24872 -2.14505,4.07167 -4.79109,4.07167c-2.64605,0 -4.79109,-1.82295 -4.79109,-4.07167c0,-2.24872 2.14505,-4.07167 4.79109,-4.07167c2.64605,0 4.79109,1.82295 4.79109,4.07167z" fill="none" stroke="none"/><path d="M242.03583,179.72447c0,-0.01691 0.01371,-0.03061 0.03061,-0.03061c0.01691,0 0.03061,0.01371 0.03061,0.03061c0,0.01691 -0.01371,0.03061 -0.03061,0.03061c-0.01691,0 -0.03061,-0.01371 -0.03061,-0.03061z" fill="none" stroke="none"/><path d="M242.73107,179.73287c0,1.29344 -0.97315,2.34197 -2.1736,2.34197c-1.20044,0 -2.1736,-1.04854 -2.1736,-2.34197c0,-1.29344 0.97315,-2.34197 2.1736,-2.34197c1.20044,0 2.1736,1.04854 2.1736,2.34197z" fill="#ff0000" stroke="#000000"/></g></g></svg>